# xmcd
#
# Track frame offsets: 
#        150
#        12890
#        22955
#        37002
#        50747
#        60945
#        74267
#        87650
#        98427
#        111097
#        121840
#        132545
#        140752
#        153052
#        160017
#        170917
#        184592
#        195195
#        206470
#        214937
#        220895
#        232107
#        237460
#        245242
#
# Disc length: 3345 seconds
#
# Revision: 0
# Processed by: cddbd v1.5.2PL0 Copyright (c) Steve Scherf et al.
# Submitted via: ExactAudioCopy v0.99pb4
#
DISCID=580d0f18
DTITLE=Mercy Dee Walton - One Room Country Chack
DYEAR=1993
DGENRE=Blues
TTITLE0=One Room Country Chack
TTITLE1=My Woman Knows The Score
TTITLE2=Misery Blues
TTITLE3=The Great Mistake
TTITLE4=Save Me Some
TTITLE5=Strugglin' With The Blues
TTITLE6=Lonesome Cabin Blues
TTITLE7=Rent Man Blues
TTITLE8=Fall Guy
TTITLE9=The Drifter
TTITLE10=Hear Me Shout
TTITLE11=Love Is A Mystery
TTITLE12=Winter Blues
TTITLE13=Pauline
TTITLE14=Get To Gettin'
TTITLE15=Dark Muddy Bottom
TTITLE16=Whatcha Gonna Do
TTITLE17=My Woman And The Devil
TTITLE18=Big Minded Daddy
TTITLE19=Perfect Health
TTITLE20=Problem Child
TTITLE21=Pull 'Em And Pop 'Em
TTITLE22=8th Wonder Of The World
TTITLE23=Rock And Roll Fever
EXTD=
EXTT0=
EXTT1=
EXTT2=
EXTT3=
EXTT4=
EXTT5=
EXTT6=
EXTT7=
EXTT8=
EXTT9=
EXTT10=
EXTT11=
EXTT12=
EXTT13=
EXTT14=
EXTT15=
EXTT16=
EXTT17=
EXTT18=
EXTT19=
EXTT20=
EXTT21=
EXTT22=
EXTT23=
PLAYORDER=
